<svg width="51" height="50" viewBox="0 0 51 50" fill="none" xmlns="http://www.w3.org/2000/svg">
<path fill-rule="evenodd" clip-rule="evenodd" d="M25.9017 37.5C32.8053 37.5 38.4017 31.9035 38.4017 25C38.4017 18.0964 32.8053 12.5 25.9017 12.5C18.9982 12.5 13.4017 18.0964 13.4017 25C13.4017 31.9035 18.9982 37.5 25.9017 37.5ZM25.9017 33.3333C30.504 33.3333 34.2351 29.6023 34.2351 25C34.2351 20.3976 30.504 16.6667 25.9017 16.6667C21.2994 16.6667 17.5684 20.3976 17.5684 25C17.5684 29.6023 21.2994 33.3333 25.9017 33.3333Z" fill="#F7F7F7"/>
<path d="M38.4017 10.4167C37.2511 10.4167 36.3184 11.3494 36.3184 12.5C36.3184 13.6506 37.2511 14.5833 38.4017 14.5833C39.5523 14.5833 40.4851 13.6506 40.4851 12.5C40.4851 11.3494 39.5523 10.4167 38.4017 10.4167Z" fill="#F7F7F7"/>
<path fill-rule="evenodd" clip-rule="evenodd" d="M4.34749 8.90845C2.98508 11.5823 2.98508 15.0827 2.98508 22.0833V27.9167C2.98508 34.9173 2.98508 38.4177 4.34749 41.0915C5.54591 43.4435 7.45816 45.3558 9.8102 46.5542C12.4841 47.9167 15.9844 47.9167 22.9851 47.9167H28.8184C35.819 47.9167 39.3195 47.9167 41.9932 46.5542C44.3453 45.3558 46.2576 43.4435 47.4559 41.0915C48.8184 38.4177 48.8184 34.9173 48.8184 27.9167V22.0833C48.8184 15.0827 48.8184 11.5823 47.4559 8.90845C46.2576 6.55641 44.3453 4.64416 41.9932 3.44574C39.3195 2.08333 35.819 2.08333 28.8184 2.08333H22.9851C15.9844 2.08333 12.4841 2.08333 9.8102 3.44574C7.45816 4.64416 5.54591 6.55641 4.34749 8.90845ZM28.8184 6.24999H22.9851C19.416 6.24999 16.9898 6.25324 15.1144 6.40645C13.2877 6.5557 12.3535 6.82622 11.7018 7.15827C10.1338 7.95722 8.85897 9.23206 8.06001 10.8001C7.72797 11.4517 7.45745 12.3859 7.3082 14.2127C7.15499 16.088 7.15174 18.5142 7.15174 22.0833V27.9167C7.15174 31.4858 7.15499 33.9119 7.3082 35.7873C7.45745 37.6142 7.72797 38.5483 8.06001 39.2C8.85897 40.7679 10.1338 42.0427 11.7018 42.8417C12.3535 43.1737 13.2877 43.4444 15.1144 43.5935C16.9898 43.7467 19.416 43.75 22.9851 43.75H28.8184C32.3876 43.75 34.8136 43.7467 36.689 43.5935C38.5159 43.4444 39.4501 43.1737 40.1017 42.8417C41.6697 42.0427 42.9444 40.7679 43.7434 39.2C44.0755 38.5483 44.3461 37.6142 44.4953 35.7873C44.6484 33.9119 44.6517 31.4858 44.6517 27.9167V22.0833C44.6517 18.5142 44.6484 16.088 44.4953 14.2127C44.3461 12.3859 44.0755 11.4517 43.7434 10.8001C42.9444 9.23206 41.6697 7.95722 40.1017 7.15827C39.4501 6.82622 38.5159 6.5557 36.689 6.40645C34.8136 6.25324 32.3876 6.24999 28.8184 6.24999Z" fill="#F7F7F7"/>
</svg>
