<svg width="50" height="50" viewBox="0 0 50 50" fill="none" xmlns="http://www.w3.org/2000/svg">
<path d="M26.3024 31.9342C27.952 34.305 27.7315 37.5835 25.6177 39.6985L17.1935 48.1207C14.8184 50.4963 10.9668 50.4963 8.59168 48.1207L1.78132 41.3115C-0.593774 38.9358 -0.593774 35.0847 1.78132 32.709L10.2048 24.2843C12.3191 22.1705 15.597 21.95 17.9691 23.5997L6.58513 34.9848C5.26511 36.3042 5.28767 38.4656 6.63386 39.8143L10.089 43.2668C11.4372 44.6144 13.5984 44.6387 14.9177 43.3169L26.3024 31.9342ZM34.9841 6.58354C36.3047 5.26528 38.466 5.28726 39.8135 6.63345L43.2686 10.0885C44.6148 11.4348 44.6368 13.5986 43.3174 14.9167L31.9335 26.3006C34.3042 27.9515 37.584 27.7298 39.6977 25.616L48.1199 17.1924C50.4957 14.818 50.4957 10.9669 48.1199 8.59126L41.3096 1.78081C38.9363 -0.593603 35.084 -0.593603 32.7084 1.78081L24.2855 10.203C22.1711 12.3193 21.9512 15.5965 23.6009 17.9672L34.9841 6.58354ZM32.8448 14.7292C32.294 14.1796 31.3438 14.2357 30.7225 14.8558L14.8575 30.7219C14.2367 31.3421 14.1795 32.2924 14.7307 32.8431L17.059 35.1726C17.6096 35.7233 18.5605 35.6648 19.1813 35.0458L35.045 19.1808C35.6663 18.5594 35.7235 17.6081 35.1717 17.0585L32.8448 14.7292Z" fill="#F7F7F7"/>
</svg>
